<?xml version="1.0" encoding="utf-8"?>
<!-- Generator: Adobe Illustrator 26.2.1, SVG Export Plug-In . SVG Version: 6.00 Build 0)  -->
<svg version="1.1" id="Layer_1" xmlns="http://www.w3.org/2000/svg" xmlns:xlink="http://www.w3.org/1999/xlink" x="0px" y="0px"
	 viewBox="0 0 1045.28 177.21" style="enable-background:new 0 0 1045.28 177.21;" xml:space="preserve">
<g id="BKp9RZ.tif">
	<g>
		<path d="M38.36,111.31c0.33-0.7,0.51-1.53,1.01-2.08c3.58-3.89,5.03-8.3,3.94-13.56c-0.36-1.73,0.67-2.62,2.51-2.19
			c1.37,0.32,2.73,0.67,4.06,1.11c5.11,1.7,10.19,3.51,15.32,5.16c17.96,5.78,36.2,10.35,54.97,12.7
			c8.95,1.12,17.87,2.48,26.81,3.73c2.39,0.33,2.72,0.91,1.49,3.1c-0.77,1.38-1.78,2.64-2.77,3.88c-2.03,2.54-3.48,5.06-3.22,8.63
			c0.59,8.05-5.78,9.94-10.92,9.27c-4.94-0.65-9.8-2.05-14.64-3.31c-8.92-2.32-17.77-4.93-26.71-7.16
			c-13.81-3.44-27.69-6.6-41.51-9.98c-4.62-1.13-8.42-3.49-10.36-8.1C38.36,112.11,38.36,111.71,38.36,111.31z M87.61,117.27
			c-2.83,0.09-3.87,1.15-4.2,4.23c-0.23,2.16,0.18,3.73,2.82,4.37c10.86,2.62,21.66,5.48,32.51,8.17c1.91,0.47,4.15,1.24,5.79,0.64
			c1.13-0.41,1.45-2.94,2.21-4.48c0.25-0.52,0.72-0.95,1.1-1.4c1.44-1.73,1.2-2.6-1.19-3.12c-12.11-2.62-24.19-5.37-36.28-8.05
			C89.4,117.41,88.38,117.36,87.61,117.27z M48.91,98.89c-0.26,0.43-0.79,0.94-0.88,1.53c-0.55,3.32,0.21,4.77,3.72,5.55
			c8.61,1.91,17.28,3.56,25.93,5.3c11.79,2.37,23.59,4.73,35.38,7.09c8.25,1.65,16.5,3.3,24.75,4.97c0.39,0.08,0.91,0.49,1.11,0.36
			c1.08-0.72,2.65-1.39,2.98-2.41c0.56-1.72-1.29-1.53-2.36-1.7c-4.76-0.76-9.5-1.76-14.29-2.12c-12.08-0.89-23.73-4.08-35.43-6.72
			c-12.87-2.91-25.38-7.37-38.05-11.15C50.99,99.36,50.2,99.2,48.91,98.89z M46.08,108.91c-2.76,0.07-4.18,2.44-2.44,4.39
			c1.21,1.36,3.18,2.29,4.99,2.85c4.76,1.48,9.6,2.73,14.45,3.94c4.46,1.11,8.95,2.09,13.44,3.02c0.67,0.14,1.97-0.09,2.1-0.45
			c0.65-1.84,1.25-3.78,1.32-5.71c0.02-0.53-1.78-1.41-2.85-1.65c-9.77-2.14-19.56-4.18-29.34-6.24
			C47.18,108.94,46.56,108.95,46.08,108.91z M138.78,130.8c-0.39-0.61-1.29-2.01-2.19-3.41c-2.04,1.41-4.45,2.5-6,4.31
			c-1.32,1.54,0.37,4.68,2.35,5.38C135.46,137.99,138.72,135.09,138.78,130.8z"/>
		<path d="M589.03,81.43c4-2.48,6.33-5.3,10.34-5.67c4.65-0.43,8.7,0.08,12.22,3.4c2.78,2.62,3.15,2.5,5.93,0.3
			c1.39-1.09,2.74-2.49,4.35-2.99c10.34-3.19,17.7,1.47,18.64,12.15c0.8,9.1,0.27,18.32,0.37,27.49c0.03,2.22-0.89,3.12-3.18,3.33
			c-11.5,1.09-11.81,0.86-11.82-10.45c0-5.18,0.06-10.37-0.04-15.55c-0.06-3.12-1.51-4.69-4.06-4.85c-2.84-0.17-5.64,1.98-5.72,4.86
			c-0.16,6.18-0.05,12.36-0.06,18.54c0,1.59,0,3.19-0.07,4.78c-0.08,1.66-1.08,2.48-2.71,2.61c-0.2,0.02-0.4,0.03-0.6,0.05
			c-11.59,1.33-12.07,0.9-12.08-10.73c-0.01-5.18,0.05-10.37-0.12-15.54c-0.11-3.47-1.03-4.48-3.45-4.55
			c-3.39-0.1-6.19,1.93-6.25,4.88c-0.12,6.38-0.03,12.76-0.04,19.13c0,1.39,0,2.79-0.08,4.18c-0.09,1.65-1.04,2.58-2.69,2.61
			c-3.22,0.05-6.45,0.16-9.64-0.1c-0.78-0.06-1.7-1.37-2.1-2.29c-0.36-0.85-0.12-1.96-0.12-2.96c-0.01-10.76-0.04-21.53-0.01-32.29
			c0.01-5.37,0.06-5.37,5.75-5.4c0.2,0,0.41,0.02,0.6,0C585.97,75.91,588.82,76.54,589.03,81.43z"/>
		<path d="M243.76,97.67c-0.29-9.09-0.56-17.45-0.81-25.8c-0.04-1.4,0.05-2.79-0.01-4.19c-0.1-2.56,1.12-3.52,3.66-3.48
			c13.16,0.23,10.63-1.71,10.77,10.05c0.16,13.76,0.07,27.53,0.03,41.3c-0.01,4.19-0.1,4.21-4.38,4.3
			c-2.01,0.04-4.06-0.21-6.03,0.06c-3.95,0.53-5.59-1.48-7.14-4.79c-4.61-9.87-9.63-19.56-14.75-29.82
			c0.24,9.6,0.46,18.54,0.67,27.47c0.03,1.4-0.06,2.8,0,4.19c0.09,2.01-0.85,2.73-2.85,2.92c-10.67,1.03-10.85,0.92-10.85-9.36
			c-0.01-13.77-0.04-27.53,0-41.3c0.01-4.85,0.11-5.03,5.11-4.93c9.2,0.19,9.55-2.16,13.99,8.27
			C234.72,80.93,239.29,88.87,243.76,97.67z"/>
		<path d="M980.8,75.69c6.82,0.19,13.65,0.4,20.47,0.56c1.98,0.05,2.95,0.96,2.93,2.93c-0.02,1.2-0.04,2.4,0.03,3.59
			c0.15,2.4-0.65,3.83-3.37,3.71c-1.72-0.08-2.97,0.13-2.88,2.61c0.4,10.91-3.95,15.48-15.21,16.28c-1.8,0.13-3.62-0.18-5.42-0.06
			c-0.62,0.04-1.7,0.82-1.68,1.21c0.05,0.81,0.54,2.14,1.11,2.29c2.1,0.57,4.3,0.85,6.48,1.04c4.19,0.38,8.42,0.45,12.59,0.97
			c4.64,0.59,7.74,3.3,8.71,7.87c1,4.74-0.92,8.65-4.5,11.66c-7.14,6-15.79,6.2-24.49,5.79c-2.18-0.1-4.34-0.75-6.5-1.23
			c-3.65-0.8-5.85-3.4-7.42-6.47c-1.48-2.89-0.43-5.45,1.93-7.48c2.32-2,3.36-3.79,1.27-6.92c-2.03-3.04-1.57-6.98,0.96-9.45
			c2.62-2.55,1.3-3.68-0.3-5.71c-4.2-5.33-4.18-11.06-0.46-16.62c2.96-4.44,7.41-6.54,12.74-6.85c1-0.06,2.01-0.01,3.02-0.01
			C980.81,75.52,980.81,75.6,980.8,75.69z M981.34,121.34c0-0.1,0-0.2,0-0.3c-1.6,0-3.23-0.19-4.78,0.07
			c-1.02,0.17-2.72,1-2.72,1.54c0,1.16,0.65,3.08,1.47,3.35c4.43,1.43,9,1.68,13.35-0.35c0.65-0.3,1.25-1.65,1.12-2.38
			c-0.13-0.73-1.15-1.75-1.88-1.84C985.75,121.18,983.54,121.34,981.34,121.34z M985.23,91.39c-0.04-4.08-1.5-6.06-4.1-6.18
			c-2.8-0.12-4.59,2.11-4.45,5.78c0.04,1.14,0.24,2.48,0.89,3.33c0.77,1.01,2.17,2.28,3.18,2.18c1.34-0.13,2.79-1.28,3.73-2.38
			C985.16,93.35,985.1,91.93,985.23,91.39z"/>
		<path d="M707.94,90.79c0-7.78-0.06-15.57,0.02-23.35c0.04-3.91,0.15-3.95,4.14-4.05c2.62-0.07,5.24,0.04,7.86-0.01
			c2.08-0.04,2.85,1.01,2.84,2.94c-0.02,4.99,0.1,9.98-0.02,14.97c-0.06,2.52,0.77,3.64,3.45,3.5c3.22-0.17,6.45-0.14,9.67-0.02
			c2.68,0.1,3.54-1.17,3.51-3.62c-0.07-4.59-0.09-9.18,0.01-13.77c0.08-3.85,0.18-3.89,4.23-4.01c2.42-0.07,4.84,0.1,7.25-0.04
			c2.69-0.15,3.48,1.1,3.44,3.57c-0.09,6.19-0.02,12.38-0.02,18.56c0,9.78,0.04,19.56-0.02,29.34c-0.02,3.9-0.13,3.94-4.07,4.04
			c-2.62,0.07-5.24-0.01-7.86,0c-1.99,0.01-2.92-0.92-2.92-2.92c0.02-4.79,0.05-9.58-0.05-14.37c-0.08-3.84-0.35-4.09-4.13-4.22
			c-2.82-0.1-5.64-0.09-8.46,0.01c-3.76,0.14-3.91,0.3-3.97,4.29c-0.08,4.59-0.1,9.18,0.01,13.77c0.06,2.58-1.01,3.61-3.56,3.5
			c-2.61-0.1-5.24-0.11-7.86,0.01c-2.64,0.12-3.51-1.08-3.49-3.58c0.08-8.18,0.03-16.37,0.03-24.55
			C707.97,90.79,707.96,90.79,707.94,90.79z"/>
		<path d="M864.35,77.62c0-4.77-0.06-9.31,0.02-13.85c0.07-4,0.14-4.18,4.02-4.14c12.69,0.12,10.32-1.7,10.44,9.67
			c0.16,14.95,0.08,29.89,0.04,44.84c-0.01,4.51-0.1,4.66-4.75,4.57c-2.83-0.06-6.06,1.2-8.33-2.03c-0.27-0.39-2.96,0.49-4.23,1.26
			c-6.24,3.77-12.26,2.56-17.26-1.73c-2.86-2.46-5.38-6.32-6.15-9.94c-1.56-7.36-2.06-14.85,2.56-21.87
			c5.69-8.64,11.61-10.94,21.35-7.33C862.6,77.28,863.17,77.35,864.35,77.62z M864.32,97.63c0.01,0,0.03,0,0.04,0
			c0-1.59-0.06-3.17,0.01-4.76c0.11-2.41-0.51-4.26-3.12-5.05c-3-0.91-4.96-0.35-6.77,2.15c-3.11,4.3-2.89,12.02,0.36,16.27
			c1.65,2.15,3.84,1.8,6,1.49c2.35-0.34,3.4-1.91,3.46-4.16C864.36,101.59,864.32,99.61,864.32,97.63z"/>
		<path d="M401.69,79.49c3.44-1.2,6.68-2.66,10.08-3.47c8.02-1.89,14.46,3.83,14.74,10.88c0.41,9.95,0.24,19.93,0.32,29.9
			c0.02,1.96-0.93,2.71-2.92,2.91c-10.84,1.12-11.12,0.91-11.14-9.75c-0.01-5.38,0.17-10.78-0.22-16.14
			c-0.37-5.05-4.11-6.54-8.49-3.87c-1.89,1.15-2.01,2.8-2.01,4.63c0.01,6.58,0.06,13.16,0.01,19.74c-0.04,5.28-0.12,5.42-5.41,5.37
			c-11.7-0.11-9.89,1.68-9.98-9.63c-0.11-14.55-0.05-29.11-0.05-43.66c0-1.4-0.24-2.87,0.14-4.16c0.27-0.91,1.4-1.57,2.18-2.31
			c0.11-0.1,0.39-0.02,0.59-0.04c12.01-1.41,12.62-0.88,12.47,10.97c-0.02,1.59-0.25,3.17-0.31,4.76
			C401.65,76.97,401.69,78.32,401.69,79.49z"/>
		<path d="M469.94,63.51c5.72-0.31,12.56,0.18,19.29,3.05c9.1,3.89,12.37,15.99,7.86,24.38c-3.82,7.11-10.3,9.63-17.64,10.95
			c-0.98,0.18-2.01,0.05-3.02,0.07c-6.1,0.1-6.1,0.1-6.13,6.41c-0.01,2.79-0.02,5.59-0.02,8.38c0,1.98-0.98,2.9-2.97,2.88
			c-3.02-0.03-6.04-0.03-9.06,0.01c-2.06,0.03-2.87-1.01-2.87-2.95c0.01-3.59-0.02-7.18-0.02-10.77c-0.01-12.57-0.05-25.13,0-37.7
			c0.02-4.58,0.11-4.61,4.75-4.7C462.93,63.47,465.75,63.51,469.94,63.51z M476.07,75.64c-5.66-0.11-5.74-0.05-5.79,5.61
			c-0.02,2.17-0.1,4.36,0.09,6.51c0.07,0.85,0.59,1.99,1.28,2.41c2.15,1.34,8.68-0.21,10.51-2.24c2.21-2.44,2.82-5.15,1.55-8.21
			C482.25,76.21,479.26,75.52,476.07,75.64z"/>
		<path d="M127.94,45.23c13.78,6.09,22.31,15.39,25.63,29.13c0.23,0.96,0.72,1.86,1.02,2.81c1.78,5.69,1.76,5.79,7.92,6.22
			c2.33,0.16,3.26,1.08,3.12,3.29c-0.04,0.6,0,1.2,0.01,1.79c0.07,6.02,0.07,6.07-5.76,6.07c-30.2,0.02-60.41,0.01-90.61,0
			c-1.21,0-2.44,0.08-3.61-0.15c-0.67-0.13-1.72-0.78-1.76-1.26c-0.18-2.76-0.28-5.56,0.01-8.31c0.06-0.56,1.85-1.16,2.92-1.36
			c2.31-0.43,5.23,0.1,6.85-1.13c1.37-1.03,1.25-3.99,1.84-6.08c2.7-9.56,7.05-18.23,14.72-24.83c2.69-2.32,6.01-3.94,9.15-5.71
			c0.35-0.19,1.82,0.65,1.96,1.21c0.33,1.32,0.2,2.77,0.2,4.16c0.01,6.18-0.01,12.37,0.02,18.55c0.01,1.39-0.24,2.97,0.33,4.12
			c0.51,1.04,1.9,2.07,3.05,2.27c1.7,0.3,2.41-1.2,2.45-2.72c0.09-3.39,0.07-6.78,0.07-10.17c0.01-5.39-0.1-10.78,0.05-16.16
			c0.1-3.61,1.09-4.07,7.05-3.99c5.4,0.08,6.2,0.5,6.26,4.19c0.11,7.38,0.03,14.76,0.05,22.14c0,1.39-0.26,2.95,0.27,4.13
			c0.49,1.08,1.85,2.39,2.89,2.44c1.05,0.05,2.59-1.09,3.14-2.12c0.61-1.12,0.42-2.71,0.42-4.1c0.03-6.18,0-12.37,0.03-18.55
			C127.65,49.39,127.82,47.63,127.94,45.23z M97.67,51.49c-1.8,1.09-2.9,1.58-3.8,2.31c-8.77,7.15-13.42,16.63-15.4,27.49
			c-1,5.47-0.96,5.53-5.56,5.91c-1.9,0.16-5.41-1.26-5.2,1.93c0.17,2.72,3.62,1.53,5.59,1.54c27.59,0.08,55.17,0.09,82.76-0.02
			c1.82-0.01,5.23,1.5,5.19-1.87c-0.04-2.79-3.2-1.43-4.98-1.58c-2.22-0.18-3.7-0.6-4.29-3.16c-1.13-4.82-2.25-9.72-4.14-14.28
			c-2.76-6.66-6.59-12.74-13.33-16.32c-2.18-1.16-2.83-0.87-2.88,1.59c-0.11,4.98,0.15,9.98-0.13,14.96
			c-0.14,2.5-0.67,5.2-1.83,7.38c-2.02,3.8-7.38,3.99-10.13,0.71c-1.73-2.07-2.6-4.37-2.55-7.13c0.12-5.98,0.04-11.97,0.03-17.95
			c0-1.4,0.26-2.89-0.16-4.16c-0.28-0.85-1.53-1.91-2.35-1.91c-0.8,0-1.95,1.09-2.29,1.96c-0.41,1.04-0.14,2.36-0.14,3.55
			c-0.01,5.59,0,11.17-0.01,16.76c0,1.4,0.08,2.81-0.1,4.18c-0.57,4.24-3.23,6.8-7.01,6.89c-3.64,0.08-6.58-2.48-7.05-6.77
			c-0.39-3.55-0.19-7.17-0.21-10.76C97.65,59.23,97.67,55.71,97.67,51.49z"/>
		<path d="M954.71,104c0,3.58,0.07,7.17-0.02,10.75c-0.09,3.76-0.22,3.85-4.23,3.95c-2.61,0.07-5.23-0.08-7.84,0.03
			c-2.64,0.12-3.5-1.07-3.47-3.57c0.09-6.57,0.1-13.15-0.05-19.71c-0.04-1.93-0.52-3.92-1.2-5.73c-0.76-2.02-2.56-2.35-4.52-1.68
			c-3.71,1.28-5.01,3.03-5.04,7c-0.04,6.57,0.04,13.14-0.03,19.72c-0.04,3.76-0.14,3.96-3.57,3.93
			c-13.46-0.12-10.71,1.88-10.94-10.39c-0.16-8.76-0.06-17.52-0.04-26.29c0.01-5.73,0.04-5.74,6.05-5.75c1.21,0,2.44-0.14,3.61,0.08
			c0.87,0.16,2.18,0.62,2.4,1.25c1.16,3.37,2.78,2.46,4.92,0.96c1.59-1.11,3.4-2.13,5.27-2.61c9.12-2.33,15.33,1.27,17.62,10.23
			c0.68,2.67,0.9,5.49,1.05,8.26C954.84,97.62,954.71,100.82,954.71,104z"/>
		<path d="M540.58,103.53c0,4.19-0.07,8.37,0.03,12.56c0.06,2.59-1.16,3.7-3.64,3.45c-3.38-0.34-7.4,1.47-9.7-2.77
			c-0.13-0.23-1.13-0.2-1.6,0c-1.1,0.46-2.14,1.08-3.19,1.67c-6.47,3.66-11.68,2.98-16.86-2.19c-3.31-3.31-4.47-11.42-1.56-15.7
			c2.08-3.07,5.11-5.57,9.06-6.42c3.53-0.75,7.06-1.48,10.58-2.27c0.52-0.12,1.41-0.6,1.38-0.79c-0.12-0.69-0.41-1.77-0.9-1.92
			c-2.02-0.66-4.13-1.3-6.23-1.42c-1.3-0.07-2.67,0.77-3.99,1.25c-4.68,1.7-4.68,1.71-7.14-2.37c-3.29-5.43-3.36-5.58,2.49-8.31
			c6.78-3.16,14.08-3.96,21.1-1.59c5.85,1.98,9.45,6.73,9.92,13.06c0.33,4.56,0.07,9.16,0.07,13.75
			C540.45,103.53,540.51,103.53,540.58,103.53z M525.66,103.5c-0.07-2.68-0.78-3.23-3.24-2.28c-1.29,0.5-2.82,0.98-3.61,1.97
			c-0.86,1.07-1.42,2.77-1.25,4.09c0.08,0.63,2.16,1.42,3.33,1.41C524.57,108.65,525.75,107.2,525.66,103.5z"/>
		<path d="M288.08,121.45c-9.7,0.17-21.77-9.94-21.62-20.57c0.08-5.86,0.29-11.38,4.18-16.39c4.65-6,10.51-9,18.01-8.69
			c13.82,0.58,21.5,12.73,20.23,25.21c-0.92,9-5.76,15-13.93,18.51C292.78,120.45,290.38,120.82,288.08,121.45z M293.79,98.87
			c-0.17-2.42-0.14-4.23-0.45-5.98c-0.44-2.47-2.96-4.74-5.34-4.96c-2.6-0.24-4.14,1.34-5.11,3.42c-2.24,4.78-2.09,9.6,0.1,14.37
			c1.04,2.26,2.82,3.24,5.34,2.92c2.43-0.31,4.2-1.54,4.73-3.92C293.53,102.61,293.6,100.41,293.79,98.87z"/>
		<path d="M805.22,98.51c0.2,5.28-1.02,10.76-5.5,15.14c-9.67,9.47-24.47,7.74-32.39-1.65c-5.93-7.03-6.75-22.41,1.82-30.59
			c6.62-6.32,14.94-7.93,23.4-4.43c8.19,3.39,12.75,9.88,12.68,19.03C805.22,96.62,805.22,97.22,805.22,98.51z M790.74,98.48
			c-0.48-2.59-0.61-5-1.41-7.17c-0.76-2.05-2.35-3.78-4.87-3.83c-2.79-0.06-4.87,1.87-5.43,3.99c-1.2,4.58-1.56,9.38,0.6,13.92
			c0.94,1.98,2.68,2.99,4.82,2.95c2.15-0.04,3.92-1.1,4.61-3.2C789.78,102.93,790.21,100.62,790.74,98.48z"/>
		<path d="M372.16,120.89c-11.21,0.71-17.16-6.87-18-17.51c-0.31-3.97-0.09-7.98-0.07-11.97c0.01-1.63-0.52-2.79-2.38-2.66
			c-2.64,0.17-2.92-1.46-2.87-3.45c0.03-1.2-0.02-2.39,0-3.59c0.07-4.05,0.05-4.19,4.44-5.14c1.99-0.43,2.5-1.55,2.89-3.24
			c1.89-8.17,1.92-8.1,10.19-7.5c2.25,0.16,3.38,0.93,3.26,3.22c-0.03,0.6,0.01,1.2,0,1.8c-0.05,5.68-0.34,5.67,5.48,5.66
			c4.37,0,4.38,0.15,4.53,4.28c0.04,1,0.02,2,0.01,2.99c-0.08,4.76-0.09,4.77-5.06,4.94c-1.01,0.04-2.1-0.19-2.99,0.13
			c-0.75,0.27-1.79,1.16-1.81,1.8c-0.11,4.58-0.21,9.19,0.13,13.75c0.23,3.1,1.52,4.33,4.69,4.24c3.31-0.09,4.49,1.21,5.24,4.2
			c1.65,6.64,1.09,6.55-5.63,8.02C373.25,121.07,372.21,120.89,372.16,120.89z"/>
		<path d="M664.34,120.23c-5.32,0.58-9.82-1.87-14.37-3.93c-2.43-1.1-2.46-2.1-0.88-4.69c0.62-1.02,1.21-2.08,1.97-2.99
			c1.5-1.79,2.94-2.65,5.64-1.39c2.61,1.22,5.78,1.41,8.73,1.69c0.81,0.08,2.42-1.13,2.45-1.82c0.05-0.89-0.9-2.24-1.78-2.69
			c-3.36-1.74-6.95-3.05-10.29-4.82c-4.25-2.25-6.16-5.76-6.2-10.75c-0.05-5.93,3.13-9.72,7.92-11.58
			c7.57-2.93,15.32-2.93,22.27,2.33c2.36,1.79,2.47,2.44,0.7,4.76c-0.24,0.31-0.59,0.55-0.85,0.85c-1.28,1.47-2.31,3.66-3.9,4.19
			c-1.2,0.4-3.05-1.56-4.74-2.03c-1.87-0.52-3.88-0.72-5.82-0.67c-0.58,0.02-1.37,1.31-1.58,2.14c-0.12,0.49,0.58,1.51,1.16,1.77
			c2.36,1.08,4.84,1.9,7.23,2.93c1.64,0.7,3.26,1.5,4.81,2.38c5.77,3.27,6.21,8.78,4.85,14.11c-1.53,5.99-6.74,8.58-12.51,9.85
			C667.59,120.21,665.94,120.12,664.34,120.23z"/>
		<path d="M549.7,84.25c0-6.77-0.05-13.54,0.02-20.31c0.04-4.13,0.12-4.28,4.47-4.2c3.53,0.06,7.05,0.53,10.57,0.81
			c0.18,3.35,0.5,6.69,0.52,10.04c0.08,10.15-0.01,20.31,0.09,30.47c0.03,2.99-1.15,6.65,3.27,7.94c0.62,3.07,1.36,6.13,1.76,9.23
			c0.07,0.52-1.22,1.46-2.05,1.79c-5.85,2.36-13.28-0.14-16-5.81c-1.42-2.96-2.33-6.39-2.51-9.66c-0.38-6.75-0.11-13.53-0.11-20.3
			C549.73,84.25,549.71,84.25,549.7,84.25z"/>
		<path d="M821.18,59.61c7.52,0.03,6.76-0.57,6.79,6.78c0.03,11.97,0.02,23.94,0.03,35.91c0,2.58-0.22,4.94,3.11,6.37
			c1.25,0.53,1.53,3.74,1.87,5.79c0.8,4.9,0.35,5.36-4.71,5.51c-3.22,0.1-6.39,0.14-9.23-1.97c-2.52-1.88-4.52-3.89-4.78-7.2
			c-0.2-2.57-0.81-5.13-0.83-7.69c-0.09-12.57-0.04-25.14-0.05-37.71c0-5.94-0.39-5.82,5.99-5.79
			C819.97,59.62,820.58,59.61,821.18,59.61z"/>
		<path d="M330.15,82.91c3.32-3.29,6.02-6.96,11.01-7.05c1.2-0.02,2.42-0.15,3.58,0.04c2.98,0.47,3.33,1.07,2.69,3.92
			c-0.3,1.36-0.61,2.72-0.94,4.07c-1.11,4.54-1.12,4.54-6.15,5.13c-5.65,0.67-9.17,4.64-9.21,10.49
			c-0.04,5.58-0.08,11.17,0.02,16.75c0.04,2.45-0.7,3.63-3.41,3.57c-13.63-0.28-10.96,1.85-11.17-10.27
			c-0.17-9.57-0.09-19.15-0.03-28.72c0.03-4.22,0.13-4.22,4.46-4.36c0.6-0.02,1.21-0.01,1.81,0
			C328.36,76.59,328.93,75.3,330.15,82.91z"/>
		<path d="M889.18,97.49c0-5.97,0.03-11.94-0.01-17.91c-0.01-2.13,0.65-3.39,3.09-3.3c2.81,0.1,5.63,0.1,8.43-0.02
			c2.72-0.11,3.39,1.27,3.38,3.68c-0.06,11.74-0.06,23.48,0.02,35.22c0.02,2.48-0.8,3.48-3.44,3.64
			c-11.45,0.7-11.44,0.78-11.45-10.56c0-3.58,0-7.16,0-10.75C889.19,97.49,889.18,97.49,889.18,97.49z"/>
		<path d="M896.76,71.59c-4.19,0.08-8.52-3.69-8.61-7.5c-0.09-4.25,3.52-7.64,8.17-7.67c4.62-0.03,7.85,2.78,8.02,6.98
			C904.52,67.71,901.01,71.51,896.76,71.59z"/>
		<path d="M188.64,147.71c0-36.57,0-73.13,0-109.8C189.68,41.92,189.95,140.3,188.64,147.71z"/>
	</g>
</g>
</svg>
