<?xml version="1.0" encoding="utf-8"?>
<!-- Generator: Adobe Illustrator 26.5.0, SVG Export Plug-In . SVG Version: 6.00 Build 0)  -->
<svg version="1.1" id="Layer_1" xmlns="http://www.w3.org/2000/svg" xmlns:xlink="http://www.w3.org/1999/xlink" x="0px" y="0px"
	 viewBox="0 0 1045.3 177.2" style="enable-background:new 0 0 1045.3 177.2;" xml:space="preserve">
<style type="text/css">
	.st0{fill:#FFFFFF;}
</style>
<g id="BKp9RZ.tif">
	<g>
		<path class="st0" d="M38.4,111.3c0.3-0.7,0.5-1.5,1-2.1c3.6-3.9,5-8.3,3.9-13.6c-0.4-1.7,0.7-2.6,2.5-2.2c1.4,0.3,2.7,0.7,4.1,1.1
			c5.1,1.7,10.2,3.5,15.3,5.2c18,5.8,36.2,10.3,55,12.7c8.9,1.1,17.9,2.5,26.8,3.7c2.4,0.3,2.7,0.9,1.5,3.1
			c-0.8,1.4-1.8,2.6-2.8,3.9c-2,2.5-3.5,5.1-3.2,8.6c0.6,8.1-5.8,9.9-10.9,9.3c-4.9-0.6-9.8-2.1-14.6-3.3
			c-8.9-2.3-17.8-4.9-26.7-7.2c-13.8-3.4-27.7-6.6-41.5-10c-4.6-1.1-8.4-3.5-10.4-8.1C38.4,112.1,38.4,111.7,38.4,111.3z
			 M87.6,117.3c-2.8,0.1-3.9,1.2-4.2,4.2c-0.2,2.2,0.2,3.7,2.8,4.4c10.9,2.6,21.7,5.5,32.5,8.2c1.9,0.5,4.2,1.2,5.8,0.6
			c1.1-0.4,1.4-2.9,2.2-4.5c0.2-0.5,0.7-0.9,1.1-1.4c1.4-1.7,1.2-2.6-1.2-3.1c-12.1-2.6-24.2-5.4-36.3-8.1
			C89.4,117.4,88.4,117.4,87.6,117.3z M48.9,98.9c-0.3,0.4-0.8,0.9-0.9,1.5c-0.5,3.3,0.2,4.8,3.7,5.6c8.6,1.9,17.3,3.6,25.9,5.3
			c11.8,2.4,23.6,4.7,35.4,7.1c8.2,1.7,16.5,3.3,24.8,5c0.4,0.1,0.9,0.5,1.1,0.4c1.1-0.7,2.6-1.4,3-2.4c0.6-1.7-1.3-1.5-2.4-1.7
			c-4.8-0.8-9.5-1.8-14.3-2.1c-12.1-0.9-23.7-4.1-35.4-6.7c-12.9-2.9-25.4-7.4-38-11.2C51,99.4,50.2,99.2,48.9,98.9z M46.1,108.9
			c-2.8,0.1-4.2,2.4-2.4,4.4c1.2,1.4,3.2,2.3,5,2.8c4.8,1.5,9.6,2.7,14.5,3.9c4.5,1.1,9,2.1,13.4,3c0.7,0.1,2-0.1,2.1-0.4
			c0.7-1.8,1.2-3.8,1.3-5.7c0-0.5-1.8-1.4-2.8-1.7c-9.8-2.1-19.6-4.2-29.3-6.2C47.2,108.9,46.6,108.9,46.1,108.9z M138.8,130.8
			c-0.4-0.6-1.3-2-2.2-3.4c-2,1.4-4.4,2.5-6,4.3c-1.3,1.5,0.4,4.7,2.4,5.4C135.5,138,138.7,135.1,138.8,130.8z"/>
		<path class="st0" d="M589,81.4c4-2.5,6.3-5.3,10.3-5.7c4.7-0.4,8.7,0.1,12.2,3.4c2.8,2.6,3.2,2.5,5.9,0.3c1.4-1.1,2.7-2.5,4.3-3
			c10.3-3.2,17.7,1.5,18.6,12.2c0.8,9.1,0.3,18.3,0.4,27.5c0,2.2-0.9,3.1-3.2,3.3c-11.5,1.1-11.8,0.9-11.8-10.4
			c0-5.2,0.1-10.4,0-15.6c-0.1-3.1-1.5-4.7-4.1-4.8c-2.8-0.2-5.6,2-5.7,4.9c-0.2,6.2,0,12.4-0.1,18.5c0,1.6,0,3.2-0.1,4.8
			c-0.1,1.7-1.1,2.5-2.7,2.6c-0.2,0-0.4,0-0.6,0.1c-11.6,1.3-12.1,0.9-12.1-10.7c0-5.2,0-10.4-0.1-15.5c-0.1-3.5-1-4.5-3.5-4.6
			c-3.4-0.1-6.2,1.9-6.2,4.9c-0.1,6.4,0,12.8,0,19.1c0,1.4,0,2.8-0.1,4.2c-0.1,1.7-1,2.6-2.7,2.6c-3.2,0.1-6.5,0.2-9.6-0.1
			c-0.8-0.1-1.7-1.4-2.1-2.3c-0.4-0.8-0.1-2-0.1-3c0-10.8,0-21.5,0-32.3c0-5.4,0.1-5.4,5.8-5.4c0.2,0,0.4,0,0.6,0
			C586,75.9,588.8,76.5,589,81.4z"/>
		<path class="st0" d="M243.8,97.7c-0.3-9.1-0.6-17.4-0.8-25.8c0-1.4,0.1-2.8,0-4.2c-0.1-2.6,1.1-3.5,3.7-3.5
			c13.2,0.2,10.6-1.7,10.8,10.1c0.2,13.8,0.1,27.5,0,41.3c0,4.2-0.1,4.2-4.4,4.3c-2,0-4.1-0.2-6,0.1c-3.9,0.5-5.6-1.5-7.1-4.8
			c-4.6-9.9-9.6-19.6-14.8-29.8c0.2,9.6,0.5,18.5,0.7,27.5c0,1.4-0.1,2.8,0,4.2c0.1,2-0.9,2.7-2.9,2.9c-10.7,1-10.9,0.9-10.9-9.4
			c0-13.8,0-27.5,0-41.3c0-4.8,0.1-5,5.1-4.9c9.2,0.2,9.6-2.2,14,8.3C234.7,80.9,239.3,88.9,243.8,97.7z"/>
		<path class="st0" d="M980.8,75.7c6.8,0.2,13.7,0.4,20.5,0.6c2,0.1,3,1,2.9,2.9c0,1.2,0,2.4,0,3.6c0.2,2.4-0.7,3.8-3.4,3.7
			c-1.7-0.1-3,0.1-2.9,2.6c0.4,10.9-4,15.5-15.2,16.3c-1.8,0.1-3.6-0.2-5.4-0.1c-0.6,0-1.7,0.8-1.7,1.2c0,0.8,0.5,2.1,1.1,2.3
			c2.1,0.6,4.3,0.8,6.5,1c4.2,0.4,8.4,0.4,12.6,1c4.6,0.6,7.7,3.3,8.7,7.9c1,4.7-0.9,8.7-4.5,11.7c-7.1,6-15.8,6.2-24.5,5.8
			c-2.2-0.1-4.3-0.8-6.5-1.2c-3.7-0.8-5.8-3.4-7.4-6.5c-1.5-2.9-0.4-5.4,1.9-7.5c2.3-2,3.4-3.8,1.3-6.9c-2-3-1.6-7,1-9.4
			c2.6-2.6,1.3-3.7-0.3-5.7c-4.2-5.3-4.2-11.1-0.5-16.6c3-4.4,7.4-6.5,12.7-6.8c1-0.1,2,0,3,0C980.8,75.5,980.8,75.6,980.8,75.7z
			 M981.3,121.3c0-0.1,0-0.2,0-0.3c-1.6,0-3.2-0.2-4.8,0.1c-1,0.2-2.7,1-2.7,1.5c0,1.2,0.7,3.1,1.5,3.3c4.4,1.4,9,1.7,13.3-0.3
			c0.7-0.3,1.2-1.7,1.1-2.4c-0.1-0.7-1.2-1.8-1.9-1.8C985.8,121.2,983.5,121.3,981.3,121.3z M985.2,91.4c0-4.1-1.5-6.1-4.1-6.2
			c-2.8-0.1-4.6,2.1-4.5,5.8c0,1.1,0.2,2.5,0.9,3.3c0.8,1,2.2,2.3,3.2,2.2c1.3-0.1,2.8-1.3,3.7-2.4
			C985.2,93.3,985.1,91.9,985.2,91.4z"/>
		<path class="st0" d="M707.9,90.8c0-7.8-0.1-15.6,0-23.3c0-3.9,0.2-4,4.1-4c2.6-0.1,5.2,0,7.9,0c2.1,0,2.8,1,2.8,2.9
			c0,5,0.1,10,0,15c-0.1,2.5,0.8,3.6,3.5,3.5c3.2-0.2,6.5-0.1,9.7,0c2.7,0.1,3.5-1.2,3.5-3.6c-0.1-4.6-0.1-9.2,0-13.8
			c0.1-3.8,0.2-3.9,4.2-4c2.4-0.1,4.8,0.1,7.2,0c2.7-0.2,3.5,1.1,3.4,3.6c-0.1,6.2,0,12.4,0,18.6c0,9.8,0,19.6,0,29.3
			c0,3.9-0.1,3.9-4.1,4c-2.6,0.1-5.2,0-7.9,0c-2,0-2.9-0.9-2.9-2.9c0-4.8,0-9.6,0-14.4c-0.1-3.8-0.3-4.1-4.1-4.2
			c-2.8-0.1-5.6-0.1-8.5,0c-3.8,0.1-3.9,0.3-4,4.3c-0.1,4.6-0.1,9.2,0,13.8c0.1,2.6-1,3.6-3.6,3.5c-2.6-0.1-5.2-0.1-7.9,0
			c-2.6,0.1-3.5-1.1-3.5-3.6C708,107.2,708,99,707.9,90.8C708,90.8,708,90.8,707.9,90.8z"/>
		<path class="st0" d="M864.3,77.6c0-4.8-0.1-9.3,0-13.8c0.1-4,0.1-4.2,4-4.1c12.7,0.1,10.3-1.7,10.4,9.7c0.2,14.9,0.1,29.9,0,44.8
			c0,4.5-0.1,4.7-4.8,4.6c-2.8-0.1-6.1,1.2-8.3-2c-0.3-0.4-3,0.5-4.2,1.3c-6.2,3.8-12.3,2.6-17.3-1.7c-2.9-2.5-5.4-6.3-6.2-9.9
			c-1.6-7.4-2.1-14.8,2.6-21.9c5.7-8.6,11.6-10.9,21.3-7.3C862.6,77.3,863.2,77.3,864.3,77.6z M864.3,97.6
			C864.3,97.6,864.4,97.6,864.3,97.6c0-1.6,0-3.2,0-4.8c0.1-2.4-0.5-4.3-3.1-5.1c-3-0.9-5-0.3-6.8,2.2c-3.1,4.3-2.9,12,0.4,16.3
			c1.7,2.2,3.8,1.8,6,1.5c2.3-0.3,3.4-1.9,3.5-4.2C864.4,101.6,864.3,99.6,864.3,97.6z"/>
		<path class="st0" d="M401.7,79.5c3.4-1.2,6.7-2.7,10.1-3.5c8-1.9,14.5,3.8,14.7,10.9c0.4,9.9,0.2,19.9,0.3,29.9
			c0,2-0.9,2.7-2.9,2.9c-10.8,1.1-11.1,0.9-11.1-9.8c0-5.4,0.2-10.8-0.2-16.1c-0.4-5.1-4.1-6.5-8.5-3.9c-1.9,1.2-2,2.8-2,4.6
			c0,6.6,0.1,13.2,0,19.7c0,5.3-0.1,5.4-5.4,5.4c-11.7-0.1-9.9,1.7-10-9.6c-0.1-14.6,0-29.1,0-43.7c0-1.4-0.2-2.9,0.1-4.2
			c0.3-0.9,1.4-1.6,2.2-2.3c0.1-0.1,0.4,0,0.6,0c12-1.4,12.6-0.9,12.5,11c0,1.6-0.2,3.2-0.3,4.8C401.6,77,401.7,78.3,401.7,79.5z"/>
		<path class="st0" d="M469.9,63.5c5.7-0.3,12.6,0.2,19.3,3c9.1,3.9,12.4,16,7.9,24.4c-3.8,7.1-10.3,9.6-17.6,10.9
			c-1,0.2-2,0.1-3,0.1c-6.1,0.1-6.1,0.1-6.1,6.4c0,2.8,0,5.6,0,8.4c0,2-1,2.9-3,2.9c-3,0-6,0-9.1,0c-2.1,0-2.9-1-2.9-2.9
			c0-3.6,0-7.2,0-10.8c0-12.6,0-25.1,0-37.7c0-4.6,0.1-4.6,4.8-4.7C462.9,63.5,465.8,63.5,469.9,63.5z M476.1,75.6
			c-5.7-0.1-5.7-0.1-5.8,5.6c0,2.2-0.1,4.4,0.1,6.5c0.1,0.8,0.6,2,1.3,2.4c2.1,1.3,8.7-0.2,10.5-2.2c2.2-2.4,2.8-5.2,1.5-8.2
			C482.2,76.2,479.3,75.5,476.1,75.6z"/>
		<path class="st0" d="M127.9,45.2c13.8,6.1,22.3,15.4,25.6,29.1c0.2,1,0.7,1.9,1,2.8c1.8,5.7,1.8,5.8,7.9,6.2
			c2.3,0.2,3.3,1.1,3.1,3.3c0,0.6,0,1.2,0,1.8c0.1,6,0.1,6.1-5.8,6.1c-30.2,0-60.4,0-90.6,0c-1.2,0-2.4,0.1-3.6-0.2
			c-0.7-0.1-1.7-0.8-1.8-1.3c-0.2-2.8-0.3-5.6,0-8.3c0.1-0.6,1.8-1.2,2.9-1.4c2.3-0.4,5.2,0.1,6.8-1.1c1.4-1,1.2-4,1.8-6.1
			c2.7-9.6,7.1-18.2,14.7-24.8c2.7-2.3,6-3.9,9.2-5.7c0.3-0.2,1.8,0.7,2,1.2c0.3,1.3,0.2,2.8,0.2,4.2c0,6.2,0,12.4,0,18.5
			c0,1.4-0.2,3,0.3,4.1c0.5,1,1.9,2.1,3.1,2.3c1.7,0.3,2.4-1.2,2.4-2.7c0.1-3.4,0.1-6.8,0.1-10.2c0-5.4-0.1-10.8,0.1-16.2
			c0.1-3.6,1.1-4.1,7.1-4c5.4,0.1,6.2,0.5,6.3,4.2c0.1,7.4,0,14.8,0.1,22.1c0,1.4-0.3,2.9,0.3,4.1c0.5,1.1,1.8,2.4,2.9,2.4
			c1.1,0.1,2.6-1.1,3.1-2.1c0.6-1.1,0.4-2.7,0.4-4.1c0-6.2,0-12.4,0-18.5C127.7,49.4,127.8,47.6,127.9,45.2z M97.7,51.5
			c-1.8,1.1-2.9,1.6-3.8,2.3C85.1,61,80.4,70.4,78.5,81.3c-1,5.5-1,5.5-5.6,5.9c-1.9,0.2-5.4-1.3-5.2,1.9c0.2,2.7,3.6,1.5,5.6,1.5
			c27.6,0.1,55.2,0.1,82.8,0c1.8,0,5.2,1.5,5.2-1.9c0-2.8-3.2-1.4-5-1.6c-2.2-0.2-3.7-0.6-4.3-3.2c-1.1-4.8-2.2-9.7-4.1-14.3
			c-2.8-6.7-6.6-12.7-13.3-16.3c-2.2-1.2-2.8-0.9-2.9,1.6c-0.1,5,0.1,10-0.1,15c-0.1,2.5-0.7,5.2-1.8,7.4c-2,3.8-7.4,4-10.1,0.7
			c-1.7-2.1-2.6-4.4-2.6-7.1c0.1-6,0-12,0-18c0-1.4,0.3-2.9-0.2-4.2c-0.3-0.8-1.5-1.9-2.3-1.9c-0.8,0-1.9,1.1-2.3,2
			c-0.4,1-0.1,2.4-0.1,3.5c0,5.6,0,11.2,0,16.8c0,1.4,0.1,2.8-0.1,4.2c-0.6,4.2-3.2,6.8-7,6.9c-3.6,0.1-6.6-2.5-7.1-6.8
			c-0.4-3.6-0.2-7.2-0.2-10.8C97.7,59.2,97.7,55.7,97.7,51.5z"/>
		<path class="st0" d="M954.7,104c0,3.6,0.1,7.2,0,10.8c-0.1,3.8-0.2,3.8-4.2,3.9c-2.6,0.1-5.2-0.1-7.8,0c-2.6,0.1-3.5-1.1-3.5-3.6
			c0.1-6.6,0.1-13.2,0-19.7c0-1.9-0.5-3.9-1.2-5.7c-0.8-2-2.6-2.3-4.5-1.7c-3.7,1.3-5,3-5,7c0,6.6,0,13.1,0,19.7
			c0,3.8-0.1,4-3.6,3.9c-13.5-0.1-10.7,1.9-10.9-10.4c-0.2-8.8-0.1-17.5,0-26.3c0-5.7,0-5.7,6-5.8c1.2,0,2.4-0.1,3.6,0.1
			c0.9,0.2,2.2,0.6,2.4,1.2c1.2,3.4,2.8,2.5,4.9,1c1.6-1.1,3.4-2.1,5.3-2.6c9.1-2.3,15.3,1.3,17.6,10.2c0.7,2.7,0.9,5.5,1,8.3
			C954.8,97.6,954.7,100.8,954.7,104z"/>
		<path class="st0" d="M540.6,103.5c0,4.2-0.1,8.4,0,12.6c0.1,2.6-1.2,3.7-3.6,3.4c-3.4-0.3-7.4,1.5-9.7-2.8c-0.1-0.2-1.1-0.2-1.6,0
			c-1.1,0.5-2.1,1.1-3.2,1.7c-6.5,3.7-11.7,3-16.9-2.2c-3.3-3.3-4.5-11.4-1.6-15.7c2.1-3.1,5.1-5.6,9.1-6.4
			c3.5-0.8,7.1-1.5,10.6-2.3c0.5-0.1,1.4-0.6,1.4-0.8c-0.1-0.7-0.4-1.8-0.9-1.9c-2-0.7-4.1-1.3-6.2-1.4c-1.3-0.1-2.7,0.8-4,1.2
			c-4.7,1.7-4.7,1.7-7.1-2.4c-3.3-5.4-3.4-5.6,2.5-8.3c6.8-3.2,14.1-4,21.1-1.6c5.8,2,9.5,6.7,9.9,13.1c0.3,4.6,0.1,9.2,0.1,13.8
			C540.5,103.5,540.5,103.5,540.6,103.5z M525.7,103.5c-0.1-2.7-0.8-3.2-3.2-2.3c-1.3,0.5-2.8,1-3.6,2c-0.9,1.1-1.4,2.8-1.2,4.1
			c0.1,0.6,2.2,1.4,3.3,1.4C524.6,108.7,525.8,107.2,525.7,103.5z"/>
		<path class="st0" d="M288.1,121.4c-9.7,0.2-21.8-9.9-21.6-20.6c0.1-5.9,0.3-11.4,4.2-16.4c4.6-6,10.5-9,18-8.7
			c13.8,0.6,21.5,12.7,20.2,25.2c-0.9,9-5.8,15-13.9,18.5C292.8,120.4,290.4,120.8,288.1,121.4z M293.8,98.9c-0.2-2.4-0.1-4.2-0.5-6
			c-0.4-2.5-3-4.7-5.3-5c-2.6-0.2-4.1,1.3-5.1,3.4c-2.2,4.8-2.1,9.6,0.1,14.4c1,2.3,2.8,3.2,5.3,2.9c2.4-0.3,4.2-1.5,4.7-3.9
			C293.5,102.6,293.6,100.4,293.8,98.9z"/>
		<path class="st0" d="M805.2,98.5c0.2,5.3-1,10.8-5.5,15.1c-9.7,9.5-24.5,7.7-32.4-1.7c-5.9-7-6.8-22.4,1.8-30.6
			c6.6-6.3,14.9-7.9,23.4-4.4c8.2,3.4,12.8,9.9,12.7,19C805.2,96.6,805.2,97.2,805.2,98.5z M790.7,98.5c-0.5-2.6-0.6-5-1.4-7.2
			c-0.8-2.1-2.3-3.8-4.9-3.8c-2.8-0.1-4.9,1.9-5.4,4c-1.2,4.6-1.6,9.4,0.6,13.9c0.9,2,2.7,3,4.8,2.9c2.2,0,3.9-1.1,4.6-3.2
			C789.8,102.9,790.2,100.6,790.7,98.5z"/>
		<path class="st0" d="M372.2,120.9c-11.2,0.7-17.2-6.9-18-17.5c-0.3-4-0.1-8-0.1-12c0-1.6-0.5-2.8-2.4-2.7
			c-2.6,0.2-2.9-1.5-2.9-3.4c0-1.2,0-2.4,0-3.6c0.1-4.1,0-4.2,4.4-5.1c2-0.4,2.5-1.6,2.9-3.2c1.9-8.2,1.9-8.1,10.2-7.5
			c2.2,0.2,3.4,0.9,3.3,3.2c0,0.6,0,1.2,0,1.8c0,5.7-0.3,5.7,5.5,5.7c4.4,0,4.4,0.2,4.5,4.3c0,1,0,2,0,3c-0.1,4.8-0.1,4.8-5.1,4.9
			c-1,0-2.1-0.2-3,0.1c-0.8,0.3-1.8,1.2-1.8,1.8c-0.1,4.6-0.2,9.2,0.1,13.8c0.2,3.1,1.5,4.3,4.7,4.2c3.3-0.1,4.5,1.2,5.2,4.2
			c1.6,6.6,1.1,6.6-5.6,8C373.2,121.1,372.2,120.9,372.2,120.9z"/>
		<path class="st0" d="M664.3,120.2c-5.3,0.6-9.8-1.9-14.4-3.9c-2.4-1.1-2.5-2.1-0.9-4.7c0.6-1,1.2-2.1,2-3c1.5-1.8,2.9-2.7,5.6-1.4
			c2.6,1.2,5.8,1.4,8.7,1.7c0.8,0.1,2.4-1.1,2.5-1.8c0-0.9-0.9-2.2-1.8-2.7c-3.4-1.7-7-3.1-10.3-4.8c-4.2-2.2-6.2-5.8-6.2-10.8
			c0-5.9,3.1-9.7,7.9-11.6c7.6-2.9,15.3-2.9,22.3,2.3c2.4,1.8,2.5,2.4,0.7,4.8c-0.2,0.3-0.6,0.6-0.8,0.8c-1.3,1.5-2.3,3.7-3.9,4.2
			c-1.2,0.4-3-1.6-4.7-2c-1.9-0.5-3.9-0.7-5.8-0.7c-0.6,0-1.4,1.3-1.6,2.1c-0.1,0.5,0.6,1.5,1.2,1.8c2.4,1.1,4.8,1.9,7.2,2.9
			c1.6,0.7,3.3,1.5,4.8,2.4c5.8,3.3,6.2,8.8,4.8,14.1c-1.5,6-6.7,8.6-12.5,9.8C667.6,120.2,665.9,120.1,664.3,120.2z"/>
		<path class="st0" d="M549.7,84.2c0-6.8,0-13.5,0-20.3c0-4.1,0.1-4.3,4.5-4.2c3.5,0.1,7,0.5,10.6,0.8c0.2,3.3,0.5,6.7,0.5,10
			c0.1,10.2,0,20.3,0.1,30.5c0,3-1.2,6.7,3.3,7.9c0.6,3.1,1.4,6.1,1.8,9.2c0.1,0.5-1.2,1.5-2,1.8c-5.8,2.4-13.3-0.1-16-5.8
			c-1.4-3-2.3-6.4-2.5-9.7C549.5,97.8,549.7,91,549.7,84.2C549.7,84.2,549.7,84.2,549.7,84.2z"/>
		<path class="st0" d="M821.2,59.6c7.5,0,6.8-0.6,6.8,6.8c0,12,0,23.9,0,35.9c0,2.6-0.2,4.9,3.1,6.4c1.2,0.5,1.5,3.7,1.9,5.8
			c0.8,4.9,0.3,5.4-4.7,5.5c-3.2,0.1-6.4,0.1-9.2-2c-2.5-1.9-4.5-3.9-4.8-7.2c-0.2-2.6-0.8-5.1-0.8-7.7c-0.1-12.6,0-25.1,0-37.7
			c0-5.9-0.4-5.8,6-5.8C820,59.6,820.6,59.6,821.2,59.6z"/>
		<path class="st0" d="M330.1,82.9c3.3-3.3,6-7,11-7.1c1.2,0,2.4-0.2,3.6,0c3,0.5,3.3,1.1,2.7,3.9c-0.3,1.4-0.6,2.7-0.9,4.1
			c-1.1,4.5-1.1,4.5-6.1,5.1c-5.6,0.7-9.2,4.6-9.2,10.5c0,5.6-0.1,11.2,0,16.8c0,2.4-0.7,3.6-3.4,3.6c-13.6-0.3-11,1.8-11.2-10.3
			c-0.2-9.6-0.1-19.2,0-28.7c0-4.2,0.1-4.2,4.5-4.4c0.6,0,1.2,0,1.8,0C328.4,76.6,328.9,75.3,330.1,82.9z"/>
		<path class="st0" d="M889.2,97.5c0-6,0-11.9,0-17.9c0-2.1,0.7-3.4,3.1-3.3c2.8,0.1,5.6,0.1,8.4,0c2.7-0.1,3.4,1.3,3.4,3.7
			c-0.1,11.7-0.1,23.5,0,35.2c0,2.5-0.8,3.5-3.4,3.6c-11.5,0.7-11.4,0.8-11.5-10.6C889.2,104.7,889.2,101.1,889.2,97.5
			C889.2,97.5,889.2,97.5,889.2,97.5z"/>
		<path class="st0" d="M896.8,71.6c-4.2,0.1-8.5-3.7-8.6-7.5c-0.1-4.2,3.5-7.6,8.2-7.7c4.6,0,7.8,2.8,8,7
			C904.5,67.7,901,71.5,896.8,71.6z"/>
		<path class="st0" d="M188.6,147.7c0-36.6,0-73.1,0-109.8C189.7,41.9,189.9,140.3,188.6,147.7z"/>
	</g>
</g>
</svg>
