<?xml version="1.0" encoding="utf-8"?>
<!-- Generator: Adobe Illustrator 27.0.1, SVG Export Plug-In . SVG Version: 6.00 Build 0)  -->
<svg version="1.1" id="Layer_1" xmlns="http://www.w3.org/2000/svg" xmlns:xlink="http://www.w3.org/1999/xlink" x="0px" y="0px"
	 viewBox="0 0 1920 1080" style="enable-background:new 0 0 1920 1080;" xml:space="preserve">
<style type="text/css">
	.st0{fill:#FFFFFF;}
</style>
<g id="qTpSGn.tif">
	<g>
		<path class="st0" d="M159.4,528.4c0.3-0.9,0.7-1.9,0.7-2.8c0.4-12.4,0.8-24.7,1-37.1c0.1-3.7,1-7,2.8-10.1
			c1.2-1.9,2.4-3.9,3.8-5.7c10.2-13.6,21.7-25.9,34.5-37c3.6-3.1,7.5-5.6,11.9-7.3c6.2-2.4,12.3-5.2,18.4-7.9
			c6.6-2.9,13.3-3.2,20.4-1.9c10.2,1.9,20.5,3.2,30.7,4.8c0.6,0.1,1.1,0,2.1,0c0.6-1,1.3-2.2,2.3-4c-10.3-4.1-20.2-8.3-30.3-11.8
			c-3.8-1.3-8.1-1.2-12.2-1.2c-4.8,0.1-9-1.1-12.9-3.7c-2.7-1.8-5.4-3.7-8.1-5.6c-7.3-5.2-14.6-5.8-22.2-0.6
			c-0.3,0.2-0.8,0.4-1.1,0.6c-0.1,0.1-0.3,0-0.4,0c-0.2-0.2-0.4-0.4-0.5-0.6c-1.3-4,0.1-6.7,3.4-9.4c9.6-8.1,18.8-16.5,28.1-24.9
			c2-1.8,4-2.8,6.8-2.7c12.6,0.1,25.3-0.1,37.9-0.1c3.4,0,6.8,0.5,10.2,1c5.3,0.8,10.1,3.2,14.1,6.6c6.2,5.2,12.4,10.5,18,16.3
			c7.5,7.8,14.4,16.1,21.6,24.2c2,2.2,3.9,4.5,6.2,7c0.9-1.2,1.7-2.1,2.3-3.1c4.9-7.3,9.8-14.6,14.7-21.9c0.8-1.2,1.7-2.3,2.5-3.4
			c9-13.4,21.7-20.4,37.8-21.6c10.9-0.8,21.8-2.2,32.6-3.3c1.1-0.1,2.2-0.4,3.6-0.6c0-5.6,0-11.1,0-16.9c-2.6-1.6-5.7-1.7-8.7-2
			c-6.1-0.7-12.2-1.1-18.2-1.7c-9.8-0.9-19.1-3.3-26.6-10.1c-1.5-1.4-3.1-1.1-4.8-0.9c-8.3,1-16.6,2-25,3c-0.7,0.1-1.4,0.1-2.5,0.2
			c0.6-1.2,0.9-2.1,1.5-2.8c2.4-3.5,4.9-7,7.2-10.5c3.3-4.9,7.1-9.2,12-12.6c3.5-2.4,5.9-5.6,7.7-9.4c6.1-12.9,16.4-19.2,30.6-19
			c4.5,0.1,9.1,0.6,13.6,1.2c2.8,0.4,5.2,0,7.6-1.8c8.7-6.6,18-6.9,27.6-1.8c3.1,1.7,6.2,3.5,9,5.7c6.7,5.1,14,9.2,21.5,13
			c3.9,2,7.7,4.2,11.4,6.6c6.1,4,10.4,9.5,13.5,16.1c6.8,14.7,13.9,29.2,20.9,43.8c0.4,0.7,0.8,1.4,1.5,2.6c1-1.5,1.8-2.6,2.5-3.7
			c10.2-16.8,22.4-31.9,38.3-43.6c6.5-4.8,13.6-8.7,20.4-13c1.9-1.2,3.9-1.4,6.1-1.1c19.7,2.6,39.4,5.1,59.1,7.7
			c0.4,0.1,0.8,0.2,1.4,0.4c0.1,1.2,0.3,2.4,0.3,3.6c0.3,5.1,2.3,9.4,6.1,12.7c3,2.6,6.3,4.9,9.3,7.4c3,2.4,6,4.8,8.7,7.5
			c2.7,2.8,4.3,6.3,4.5,10.8c-4.7,0-9.2,0-13.7,0c-3,0-6.4-0.9-8.8,0.3c-2.3,1.2-3.7,4.4-5.3,6.9c-2.9,4.4-6.8,6.3-12,5
			c-1.8-0.5-3.7-0.5-5.4-1.2c-4.9-2-9.6-1.3-14.5,0.1c-12.1,3.6-24.3,6.8-36.5,10.2c-1.2,0.3-2.4,0.7-4.1,1.3
			c4.1,3.1,8.5,4.1,13,4.5c2.9,0.3,6,0.1,8.9-0.2c22.4-2,43.6,2.1,63.2,13.1c12.2,6.8,21.4,16.8,28.3,28.9c2.5,4.5,6,8.2,9.3,12.1
			c6.4,7.6,12.7,15.3,18.4,23.4c6,8.6,6.7,18.3,2.4,28c-1.5,3.3-1.6,6.6-1,10c0.2,1,0.4,2,0.7,2.9c3.4,9.3,3.4,18.9,3,28.6
			c-0.5,10.5-0.9,21-1.4,31.5c0,0.5-0.1,1.1-0.3,2.1c-1.1-0.9-2.1-1.5-2.8-2.2c-6-6-10.3-13.1-14-20.7c-2.7-5.6-5.5-11.2-8.3-16.8
			c-0.8-1.7-1.9-2.9-3.9-3.7c-9.5-3.5-17.1-9.6-22.8-17.8c-3.7-5.3-7.2-10.9-10.1-16.7c-1.7-3.3-3.6-4.6-7.2-4.2
			c-2.4,0.3-4.8-0.1-7.2,0.1c-2.5,0.2-4.2-0.7-5.8-2.7c-6.8-8.6-13.8-16.9-20.7-25.5c-1.4-1.8-3-2.8-5.2-3.4
			c-9.3-2.4-18.7-4.9-28-7.4c-0.7-0.2-1.3-0.3-2.5-0.5c0.6,1.4,1,2.4,1.4,3.3c8.2,15.3,16.4,30.5,24.5,45.8
			c1.8,3.4,3.4,6.9,4.8,10.4c2.6,6.9,2.6,13.9-0.3,20.8c-1.2,2.8-1.3,5.5-0.4,8.3c1.1,3.3,1.2,6.6,0.8,10.1
			c-0.6,5.9-0.8,11.9-1.2,17.8c-0.5,6.6-2.4,12.7-5.8,18.5c-3.4,5.9-5.9,12.3-8.8,18.4c-3.1,6.7-5.9,13.5-9.4,20
			c-4.9,8.9-11.9,15.8-21.1,20.4c-1,0.5-2,0.9-3.6,1.5c0.1-2.4,0.2-4.3,0.4-6.3c0.7-7.9,1.4-15.8,2.2-23.8c0.3-2.8-0.2-5.3-2-7.5
			c-2-2.6-3.8-5.3-5.6-8c-1.8-2.8-3.2-5.7-3.2-9.1c-0.2-13.2-3.7-25.8-7.4-38.3c-2.9-9.9-6.1-19.8-8.3-29.9c-1.2-5.4-3.3-9.7-7-13.7
			c-5.2-5.6-10-11.6-15-17.4c-0.5-0.6-1-1.4-1.5-2c-4.5,1.9-7.4,4.7-9.3,8.5c-1.7,3.4-3.2,7-4.2,10.7c-6.6,24.1-13.4,48.2-17.7,72.8
			c-2.9,16.8-5.4,33.6-7.5,50.5c-6.3,51.6-6.9,103.4-5.6,155.3c0.3,11.1,1.6,22.1,2.6,33.1c0.4,3.9,0.8,7.5-1.5,11
			c-2.8,4.1-6,7.5-10.7,9.4c-1.4,0.6-2.9,1.1-4.3,1.7c-4,0-8,0-11.9,0c-0.2-0.2-0.5-0.4-0.7-0.5c-16.3-4.3-32.9-6.3-49.8-5.3
			c-10.8,0.6-20.6-3.3-30.9-5.9c0.2-6.5,0.4-12.7,0.7-19c1.3-25.8,3.2-51.6,2.4-77.5c-0.6-18.2-1.9-36.3-3.3-54.4
			c-1.1-14.1-2.7-28.3-4.5-42.3c-2.1-16.5-4.1-33-7-49.3c-3.4-19.4-9.6-37.9-18.7-55.5c-0.7-1.3-1.5-2.6-2.4-4.2
			c-3.3,3.2-6.2,5.9-9,8.7c-10.9,11.3-19.4,24.1-23.7,39.3c-2.3,8-3.4,16.1-3.3,24.4c0,4-0.8,7.8-3.4,11.1
			c-3.4,4.4-5.3,9.7-6.7,15.1c-1.9,7.8-1.9,15.8-1.8,23.7c0,1.2,0,2.4,0,4.1c-4-1.9-7.1-3.6-9.4-6.6c-18.5-23.5-31.1-49.4-34.4-79.4
			c-2.2-20.3,1.2-39.1,13.9-55.6c5.3-6.9,9.6-14.4,13.8-22c0.4-0.8,0.6-1.7,1-2.7c-1,0-1.5-0.1-2.1,0c-9.8,1.6-19.6,3.3-29.4,4.8
			c-2.2,0.3-3.6,1.3-4.9,2.9c-3.8,4.6-7.9,9-11.4,13.8c-3,4.2-6.3,6.4-11.7,5.1c-2.4-0.6-4.9-0.4-7.2,1.5
			c-9.2,7.3-18.6,14.5-28,21.6c-5.5,4.2-10.1,9.1-14.1,14.7c-3.9,5.6-7.7,11.3-11.6,16.9c-0.7,1-1.5,1.8-2.4,3
			c-2.2-4.5-4.1-8.6-6.1-12.7C159.4,541.4,159.4,534.9,159.4,528.4z M446.5,769.5c0.1-1.3,0.3-2.1,0.2-2.9
			c-0.4-9.4-0.9-18.7-1.3-28.1c-0.5-9.9-1.8-19.8-0.2-29.8c4-24.9,8.1-49.9,12.2-74.8c2.3-14.3,4.9-28.5,5.4-43.1
			c0.2-4.8-0.4-8.9-4.3-12.1c-1-0.8-1.7-1.9-2.5-2.9c-9.5-10.8-18.9-21.6-28.4-32.3c-1-1.1-2.3-2.4-3.6-2.5
			c-5.1-0.6-10.2-0.7-15.3-1c-6,11.2-8.9,22.9-7.5,35.2c0.9,8,2.5,16,4.3,23.8c6.4,27.4,13.3,54.6,19.5,82
			c5.5,24.4,8.9,49.2,9.1,74.3c0,2.8-0.1,5.7,0,8.5c0.1,2.8,2,5.4,4.2,5.6C441,769.6,443.7,769.5,446.5,769.5z M504.9,477.4
			c-7.9-0.6-15.1-1.2-22.3-1.8c-1.7-0.1-3,0.2-4.2,1.4c-3.3,3.3-6.7,6.6-9.9,9.9c-0.7,0.7-1.4,1.7-1.4,2.5
			c0.3,7.8-0.2,15.6,2.7,23.1c2.5,6.6,7.5,10.4,14.1,12.6C491.8,509.7,498,493.7,504.9,477.4z M392,537c-2.5-4.5-5-9.1-7.6-13.8
			c-1.7,1.2-2.9,2-4,2.8C379.9,534.2,385.9,535.5,392,537z"/>
		<path class="st0" d="M1045.3,268.3c3.6,0.5,7.2,0.9,10.8,1.7c5.4,1.1,10.9,2.1,16.1,3.9c20.5,7.1,33.7,21.7,40.7,41.8
			c10.1,28.9,5.7,55.5-15.3,78.4c-11,12-25.3,18.5-41.3,21.2c-18.8,3.2-37.2,1.6-54.6-6.4c-22.8-10.5-37.1-28-42.2-52.7
			c-6.1-29.5,8.9-76.4,57.1-85.3c4.6-0.8,9.3-1.2,13.9-1.9c0.9-0.1,1.9-0.5,2.8-0.7C1037.3,268.3,1041.3,268.3,1045.3,268.3z
			 M1078.2,340.2c0.5-11.6-4.2-20.8-12.3-28.5c-21.8-20.9-57-10.4-65.4,15.2c-2.6,8-3.5,16.1-2,24.4c2.6,14.6,10.9,24.7,25,29.8
			c5.7,2.1,11.6,2.8,17.6,2.6c17.4-0.5,30.6-10.9,34.7-27.9C1077.1,350.6,1077.5,345.4,1078.2,340.2z"/>
		<path class="st0" d="M1810.1,824.2c-4.5,2.7-9.3,3.6-14.6,3.6c-34-0.1-67.9,0.1-101.9,0.2c-2.5,0-5.1,0-8,0
			c-0.6-8.3-1.2-16.1-1.9-23.8c-0.1-1.6,0.9-2.2,2-2.9c4.5-3,9-6,13.6-9c0-1.5,0-2.9,0-4.3c0-21.2-0.1-42.3,0.1-63.5
			c0-3.4-1.1-5.2-4-6.5c-3.6-1.6-7-3.7-10.5-5.6c0-8.3,0-16.3,0-24.9c22.5-3.5,45-1.2,67.9-1c0.8,9,1.5,17.7,2.3,26.5
			c-5.2,2.4-10,4.7-14.9,6.9c0,25.2,0,50.1,0,75.5c10.8-0.5,21.4-0.9,32.3-1.4c2-7.2,3.9-14.1,6-21.3c10.7-0.1,21.1-0.3,31.6-0.4
			C1810.1,789.5,1810.1,806.9,1810.1,824.2z"/>
		<path class="st0" d="M1250.1,481.4c1.1-0.1,2.4-0.2,3.6-0.2c16.6,0,33.2,0.1,49.9-0.1c2.9,0,4.7,0.9,6.5,3.1
			c8.9,10.9,18,21.6,27,32.4c1.3,1.5,2.6,3,3.9,4.6c5.1-1.2,9.3-3.8,12.8-7.3c3.2-3.2,6-6.8,8.8-10.4c2.6-3.4,4.8-7.1,7.3-10.5
			c2.1-2.8,4.5-5.5,6.8-8.2c3.1-3.6,6.9-5.2,11.9-5c13.9,0.4,27.8,0.1,41.8,0.1c1.5,0,3.1,0,5,0c1.7,5.4,3.4,10.6,3.4,16.2
			c0,3.5-1.5,6.4-4,8.7c-3.1,2.9-6.3,5.8-9.5,8.5c-1.4,1.2-2.1,2.4-2.1,4.3c0.1,22.3,0.1,44.6,0.1,66.9c0,0.3,0.1,0.6,0.3,1.4
			c5.3,2.9,10.8,6,16.7,9.3c-0.5,7.7-1.1,15.5-1.7,23.4c-24,0-47.6,0-71.5,0c-0.6-8.1-1.2-16-1.8-24.2c5.1-2.3,9.9-4.6,14.9-6.7
			c2-0.8,2.8-1.9,2.8-4.1c-0.1-14.2,0-28.4-0.1-42.6c0-0.6-0.1-1.1-0.3-2.1c-1.2,0.3-2.2,0.5-3.2,0.9c-5.4,2.3-9.7,6-13.3,10.4
			c-3,3.8-5.7,7.8-8.8,11.5c-3.1,3.7-6.5,7.1-10,10.4c-1.4,1.3-3.3,2.1-5.2,3.3c-11.5-13.8-22.9-27.3-34.9-41.6
			c0,18.3,0,35.5,0,53.2c3.3,1.7,6.8,3.5,10.4,5.1c2.2,1,3.2,2.2,3.1,4.8c-0.2,7.2-0.1,14.5-0.1,21.6c-3.4,1-60.3,1.3-70,0.5
			c-1.2-8.1-1.6-16.4-2.4-24.7c5.7-2.8,11.2-5.4,16.8-8.1c0.1-1.4,0.2-2.6,0.2-3.8c0-22.2,0-44.3,0.1-66.5c0-3-0.8-4.7-3.6-5.9
			c-3.4-1.4-6.6-3.4-9.9-5c-1.3-0.7-2.4-1.4-2.3-3.2c0.1-6.5,0.1-13.1,0.2-19.6C1249.6,482.1,1249.9,481.9,1250.1,481.4z"/>
		<path class="st0" d="M1603.8,272.6c1,8.2,1.9,15.8,2.9,23.7c-4.3,2.6-8.4,5.4-12.7,7.7c-2.8,1.5-3.9,3.3-3.9,6.7
			c0.2,21.4,0.2,42.9,0,64.3c0,3.6,1.2,5.4,4.3,6.7c3.4,1.4,6.6,3.3,9.9,5c0,7.4,0,14.6,0,21.9c-2.5,2.2-5.3,3.4-8.8,3.4
			c-18.5,0-36.9,0.1-55.4,0.1c-1.2,0-2.5-0.2-4.1-0.3c-0.4-7.7-0.8-15.1-1.2-23.1c5-2.8,10-5.6,15-8.4c0-7.1,0-14,0-21.2
			c-16.2,0-32.2,0-48.7,0c-0.9,6.7-1.7,13.3-2.6,20.2c4.4,2,8.4,4.1,12.6,5.8c2.1,0.9,3,2.1,2.9,4.5c-0.2,7.6-0.1,15.3-0.1,23.2
			c-22.9,0-45.4,0-68.5,0c-0.7-8.4-1.4-16.8-2.1-25.4c5.5-2.4,10.8-4.8,16.5-7.2c0-1.4,0-2.8,0-4.2c0-22-0.1-44,0.1-66
			c0-3.1-0.8-4.9-3.7-6.3c-3.7-1.7-7.2-4-10.7-5.9c0-7.6,0-15,0-22.8c22.3-5.2,44.6-2.7,67.3-1.3c0.9,7.3,1.8,14.5,2.7,21.9
			c-4.3,2.7-8.3,5.5-12.6,8c-2.2,1.3-3.1,2.9-3,5.5c0.2,5.1,0.1,10.2,0.1,15.2c3.3,0.9,43.9,1.1,49.6,0.3c0.8-6.3,1.6-12.7,2.4-19.3
			c-5.4-1.8-10.5-3.5-15.8-5.2c0-8.2,0-16.3,0-24.7c6-1.8,12.1-2.9,18.3-3c13.1-0.2,26.1,0,39.2,0
			C1596.8,272.6,1600,272.6,1603.8,272.6z"/>
		<path class="st0" d="M929.2,409.9c-7,1.9-13.8,4-20.9,4.4c-5.3,0.3-9.8-1.3-13.4-5.2c-3-3.2-5.9-6.5-8.6-10
			c-10-12.9-19.6-26.1-29.8-38.9c-5.5-6.8-11.8-13-18.3-20.2c-0.3,1.9-0.6,2.7-0.6,3.6c0,10.8,0,21.6,0,32.4c0,1.8,0.1,3.2,2.1,4.2
			c6.9,3.6,10.2,9.6,11,17.1c0.5,5.1,0.1,10.2-0.9,15.5c-4.8,0-9.4-0.2-14.1,0c-11.2,0.5-22.4,1.6-33.6,1.8c-6,0.1-12.1-1.1-18.1-2
			c-3.4-0.5-3.4-0.8-3.6-4.1c-0.4-6.9-0.9-13.9-1.3-21c6.6-2.7,13-5.4,19.7-8.1c0.1-1.1,0.2-2.2,0.2-3.3c-1-19.4-2-38.9-3-58.3
			c-0.2-3.1-0.4-6.2-0.3-9.4c0.1-2.6-0.7-4.2-3.3-5.2c-3.2-1.2-6.2-2.9-9.3-4.2c-1.4-0.6-2.3-1.4-2.3-3.1c0.1-7.1,0-14.2,0-21.5
			c1.4-0.2,2.4-0.4,3.5-0.4c14.3,0,28.7,0,43-0.1c2.4,0,3.9,0.8,5.4,2.6c6.6,8.2,12.9,16.6,20,24.4c7.3,8,13.9,16.4,19.6,25.7
			c3.6,5.9,8.2,10.9,14.2,14.4c1.4,0.8,2.9,1.5,4.8,2.4c0.1-1.9,0.2-3.2,0.2-4.4c0-8.7-0.1-17.3,0.1-26c0-2.4-0.7-4-2.6-5.4
			c-2.7-1.9-5.2-3.9-7.7-6.1c-0.9-0.8-1.9-2-1.9-3c-0.2-7.9-0.1-15.9-0.1-24.1c22.5-4.3,44.6-2.3,67-0.9c0,8.2,0,16.1,0,24.2
			c-4.3,2.4-8.6,5-13,7.2c-2.8,1.4-3.8,3.3-3.7,6.4c0.2,15.5,0.5,31,0.5,46.4c0,16.6-0.3,33.2-0.5,49.8
			C929.5,408.3,929.3,408.8,929.2,409.9z"/>
		<path class="st0" d="M1278.7,384.8c-0.4,9.5-0.8,18.7-1.3,28.1c-18,0-35.7,0-53.7,0c-0.7-4-1.2-7.9-2-11.8
			c-0.8-3.9-1.7-7.8-3-11.5c-3.4-9.9-10.3-16.5-20.2-19.8c-3.3-1.1-6.8-1.8-11-2.9c1.4,5.3,2.4,9.8,3.7,14.2
			c0.4,1.3,1.5,2.4,2.4,3.4c1.4,1.6,2.9,3.1,4.4,4.6c3.4,3.5,4.7,7.7,4,12.5c-0.5,3.1-1,6.2-1.5,9.5c-22.9,0-45.7,0-68.8,0
			c0-8,0-15.9,0-24.3c3.5-1.7,7.3-3.7,11.1-5.4c2.5-1.1,3.6-2.5,3.6-5.4c-0.1-22.7-0.1-45.5,0-68.2c0-2.6-0.7-4.2-3.3-5.1
			c-3.2-1.2-6.2-2.9-9.3-4.2c-1.7-0.7-2.3-1.8-2.3-3.6c0.1-5.1,0-10.2,0-15.3c0-3.7,2.1-6.1,5.8-6.3c4.5-0.3,9.1-0.3,13.6-0.3
			c24.7-0.1,49.4-0.4,74.1-0.2c28.5,0.2,50.5,25.4,46.8,53.7c-1.5,11.5-7.3,20.8-16.7,27.7c-1.8,1.4-3.5,2.8-5.4,4.1
			c-2.3,1.6-2.7,3.5-2.2,6.2c1.8,9.7,7.3,15.8,16.8,18.2c3.1,0.8,6.4,1.1,9.6,1.6C1275.6,384.5,1276.9,384.6,1278.7,384.8z
			 M1185.8,339.5c8.5-0.6,16.2-1.1,24-1.7c3.8-0.3,7.7-0.5,11.4-1.3c6.5-1.3,10.3-5.8,11-12.4c0.2-1.7,0.2-3.4,0.1-5.1
			c-0.6-10.1-7.6-17.3-17.7-17.6c-5.4-0.2-10.8,0.3-16.1,0.6c-3.5,0.2-6.9,0.7-10.5,1C1187.1,315.3,1186.4,327.1,1185.8,339.5z"/>
		<path class="st0" d="M1490.2,824.5c-0.9-8-1.7-15.8-2.6-23.8c1.2-0.3,2-0.5,2.8-0.7c8.7-1.8,15.1-6.9,19.6-14.4
			c1.5-2.6,2.9-5.2,4.1-7.9c8.1-17.5,16.1-35.1,24.1-52.6c0.6-1.4,1.2-2.8,2-4.4c-4-2.9-7.7-5.8-11.6-8.4c-2-1.4-2.7-2.9-2.6-5.3
			c0.2-5.1,0-10.2,0.1-15.3c0-1.1,0.2-2.2,0.3-3.5c24.6-4.6,49.1-2,73.6-1c0.7,1.3,1.3,2.5,1.8,3.6c12.6,28.4,25.1,56.9,37.7,85.3
			c1.7,3.9,3.6,7.7,5.8,11.4c3.7,6.2,9,10.6,16,12.6c0.7,0.2,1.3,0.5,2.1,0.7c0,8.1,0,16.2,0,24.8c-1.6,0-3,0-4.3,0
			c-18.5,0-36.9-0.1-55.4,0.1c-3.2,0-4.9-1-6.1-3.9c-2.1-5.3-2.4-10.5,0-15.7c1.3-2.8,3-5.4,4.6-8.1c1.2-1.9,2.4-3.8,3.7-5.9
			c-3.7-4.9-8.4-7.8-14.3-8.5c-2.9-0.4-5.9-0.2-8.9-0.3c-6.4-0.1-12.8,0-19.1-0.4c-7.7-0.5-12.2,2.9-14.2,11.9
			c1,0.9,2.3,1.8,3.3,2.9c2.2,2.4,4.7,4.6,6.5,7.3c4,5.8,3.4,11.9-0.1,17.7c-0.7,1.2-2.3,2-3.7,2.5c-7.9,2.7-15.9,4-24.3,4
			C1521.6,828.7,1501.2,826.7,1490.2,824.5z M1568.5,753c7.2,0,14.4,0,22.3,0c-3.8-9.1-7.5-17.8-11.1-26.5
			C1569.5,732.4,1565.2,742.6,1568.5,753z"/>
		<path class="st0" d="M1082.2,618.7c-21.8,0-43.7,0-66.1,0c2.7-13.6,5.4-26.9,8.1-40.5c-18.4,0-36.4,0-54.9,0
			c1.4,5.1,1.8,10.3,5,14.4c5.9,7.6,5,15.9,3.6,24.4c-0.3,1.8-1.6,2.3-3,2.5c-5.3,0.9-10.6,2.2-15.9,2.4c-6.1,0.2-12.2-0.5-18.3-0.9
			c-9.5-0.6-18.9-1.3-29-1.9c-0.3-3.3-0.7-7.2-1-11.1c-0.2-3.1-0.2-6.3-0.6-9.3c-0.3-2,0.5-3.1,2.1-4.2c11-7.4,18.8-17.6,24.7-29.3
			c2.6-5.2,5-10.5,7.2-15.9c4.8-11.3,9.3-22.8,16-33.7c-4.1-3.5-8.1-6.9-12.2-10.2c-2-1.5-2.8-3.2-2.8-5.7
			c0.2-5.9,0.1-11.9,0.1-18.3c3.8-0.6,7.2-1.2,10.7-1.6c13.7-1.6,27.5-1,41.3-0.5c7.2,0.2,14.5,0.6,21.9,0.9
			c0.6,1.2,1.3,2.4,1.9,3.7c13.1,28.8,26.1,57.7,39.2,86.5c1.2,2.7,2.5,5.4,3.9,8.1c2.6,5.3,6.9,8.9,11.6,12.2
			c2.3,1.6,5.5,2.9,6.6,5.2c1.2,2.4,0.5,5.8,0.5,8.8c0,4.4,0,8.8-0.1,13.2C1082.7,618,1082.5,618.2,1082.2,618.7z M993.4,521.6
			c-3.1,8.1-6.1,16.1-9.3,24.5c8.9,0,17.2,0,26.1,0c-3.4-8.4-6.6-16.5-9.9-24.5C997.8,521.6,995.7,521.6,993.4,521.6z"/>
		<path class="st0" d="M1102.1,799.8c0,8.7,0,17.4,0,26.3c-1.3,0.2-2.5,0.5-3.8,0.6c-16.8,1.3-33.5,0.6-50.2-0.4
			c-2.1-0.1-4.3-0.5-6.4-0.3c-3.1,0.3-4.6-1.3-5.9-3.8c-2.5-4.9-2.7-9.8-0.4-14.8c1.4-3.1,3.3-5.9,5-8.9c1.4-2.6,2.9-5.1,4.2-7.6
			c-4.9-4.9-10-7.8-16.7-8.2c-14.1-0.8-27.7,1.1-41.2,6.8c0.9,1.4,1.7,2.5,2.4,3.7c2.4,4.2,5.1,8.3,6.9,12.7
			c2.9,6.9,2.3,13.9-1.1,20.8c-21.8,0-43.6,0-66,0c-0.7-8.5-1.5-17-2.2-25.7c1.1-0.3,1.8-0.6,2.4-0.7c7.1-1.8,12.6-5.8,16.6-11.8
			c1.9-3,3.7-6.1,5.2-9.3c8.4-18,16.8-36,25.1-54.1c0.4-0.8,0.7-1.5,1.1-2.7c-12.7-8.6-16.8-20.1-11.2-34.8c1.4-0.1,2.6-0.2,3.9-0.2
			c21.3,0,42.6,0,63.9-0.1c2.9,0,4.5,0.8,5.7,3.6c12.3,28.3,24.7,56.5,37.1,84.6c1.6,3.6,3.3,7.2,5.3,10.7c4,6.8,9.8,11.3,17.8,12.6
			c0.4,0.1,0.8,0.2,1.2,0.3C1101.2,799.3,1101.5,799.4,1102.1,799.8z M1012.2,723.8c-4,10.5-7.8,20.3-11.9,31
			c9.6-0.9,18.3-1.6,27.5-2.5C1024.6,741.4,1021.3,731.4,1012.2,723.8z"/>
		<path class="st0" d="M1135,721.2c-4.2-2.2-8.3-4.3-12.3-6.4c-1.3-0.7-2.5-1.2-2.5-3c0.1-8.5,0-17,0-25.6c1.1-0.2,1.9-0.4,2.7-0.4
			c22.9-0.1,45.7-0.5,68.6-0.3c9.9,0.1,19.9,0.8,29.7,2.3c21.2,3.2,36.4,20.7,37.2,42c0.2,5.2-0.2,10.5-1.3,15.6
			c-2.3,11-8.8,19.3-18.4,25c-11.8,7-24.7,10.7-38.4,11.1c-6.5,0.2-13.1-0.3-19.6-0.4c-1.3,0-2.5,0-4.3,0c-0.7,3.9-1.4,7.8-2.1,11.9
			c6.1,2.5,12,4.8,18,7.3c0,8.5,0,16.8,0,25.4c-24.1,0-48,0-72.3,0c-0.6-8.1-1.1-16.2-1.7-24.5c4-2,7.8-4.2,11.8-5.8
			c2.8-1.1,4-2.9,4.3-5.7c0.7-6.8,1.9-13.5,1.9-20.3c-0.1-13.9-0.9-27.8-1.4-41.7C1134.9,725.6,1135,723.5,1135,721.2z M1174,744.7
			c10.2,5.1,20.6,6.6,31.5,3.6c4.8-1.3,8.5-3.8,11-8.1c1.4-2.3,2.9-4.5,4.3-6.7c-4-7.8-10.4-12.7-18.6-14.3c-9-1.8-17.8,0.4-27,1.2
			C1174.9,728.6,1174.5,736.6,1174,744.7z"/>
		<path class="st0" d="M780.7,592.5c4-1.4,7.4-2.7,11-3.7c2.3-0.7,3.4-1.9,4-4.3c3.2-13.7,3.6-27.6,3-41.5
			c-0.3-7.9-0.9-15.9-1.1-23.8c0-2.9-1.1-4.3-3.5-5.6c-3.8-2-7.4-4.3-11.1-6.4c-1.5-0.8-2.4-1.7-2.4-3.6c0.1-7.5,0-15,0-22.8
			c1.1-0.2,2-0.5,3-0.5c26.7-0.1,53.4-0.3,80.1-0.2c6.8,0,13.6,0.4,20.4,1.3c17.6,2.2,31.6,15.7,34.1,36.2c0.9,7.5,1.1,15-0.6,22.5
			c-2.1,9.7-7.3,17.1-15.6,22.5c-9.1,5.9-19.3,8.8-29.9,10.4c-10.1,1.4-20.3,2.8-30.5,2.7c-1,0-1.9,0.2-3.3,0.3
			c-0.4,3.7-0.8,7.3-1.2,11.2c5.3,2.4,10.3,4.6,15.4,6.9c0,8.4,0,16.6,0,24.7c-3,0.9-63.6,1.3-71.5,0.4
			C780.4,610.3,780.9,601.6,780.7,592.5z M875.9,514.2c-12.8-0.8-25.2-1.5-37.5-2.3c-1,5.7-0.7,27.5,0.3,30.5
			c7.7,0,15.5,0.1,23.3-0.1c2.7-0.1,5.4-0.5,8-1.2c5.8-1.4,8.1-4.4,8.3-10.3C878.4,525.4,877.3,520,875.9,514.2z"/>
		<path class="st0" d="M1456.6,571.7c9.1-0.6,18.2-1.1,27.6-1.7c2,4.5,4.1,8.8,5.9,13.3c1.1,2.7,2.6,3.9,5.6,4.1
			c7.2,0.6,14.4,1.7,21.6,2.4c5.6,0.5,10.6-1.5,15.4-4.1c3.1-1.6,4-4.7,5.3-7.5c0.3-0.7-0.3-1.9-0.7-2.7c-2.6-5.2-7-8.2-12.5-9.5
			c-5.1-1.1-10.3-1.8-15.5-2.7c-8.1-1.4-16.3-2.6-24.3-4.4c-8-1.8-15.1-5.6-20.8-11.8c-5.4-5.9-8.3-12.8-8.8-20.7
			c-0.3-6,0.1-11.9,2-17.7c3.5-11.1,11-18.7,21.2-23.8c23.4-11.6,47.1-11.5,70.8-1.3c5.2,2.2,10,5.3,15,7.9c2.1,1.1,3,2.5,3,5.1
			c-0.2,7.5-0.1,15.1-0.1,22.6c0,0.8-0.1,1.7-0.2,2.9c-5.9,0.7-11.8,1.4-17.7,2c-0.7,0.1-1.5,0-2.1,0.2c-5.1,1.7-8.3-0.1-10.3-5
			c-0.7-1.8-2.3-3.3-3-5.1c-1.6-4-4.6-5.3-8.7-5.4c-4.1-0.1-8.2-0.7-12.3-0.9c-4-0.2-7.6,1.2-10.5,3.9c-2.4,2.2-4.5,4.7-6.9,7
			c-1.3,1.3-1.4,2.6-1,4.3c1,4.1,3.5,6.9,7.5,7.9c4.2,1.1,8.6,1.8,12.9,2.6c8.8,1.5,17.7,2.6,26.5,4.4c9.2,1.8,17.7,5.3,24.6,12
			c5.6,5.4,9.1,11.9,10.6,19.5c3.9,19.2-4.2,36.5-21.8,45c-16,7.7-33.1,10.7-50.9,9c-15.4-1.5-29.5-6.8-42.8-14.6
			c-2.5-1.4-3.5-3.2-4-6C1455,592.7,1454.5,582.6,1456.6,571.7z"/>
		<path class="st0" d="M1496.1,688.7c0,16.3,0,32.1,0,48.4c-3.1,0.3-6.2,0.6-9.3,0.9c-3.4,0.3-6.8,0.3-10.2,0.8
			c-4.3,0.6-7.2-1.3-9.1-4.8c-1.3-2.3-2.2-4.9-3.2-7.4c-2.6-6.1-5.9-7.7-12.8-6c0,24.3,0,48.7,0,73.5c4.2,2.1,8.6,4.3,13,6.5
			c0,8.6,0,17.1,0,25.6c-3.2,0.9-63.6,1.2-71.7,0.4c-0.1-8.5-0.1-17.1,0-25.8c3.9-1.9,7.6-3.7,11.3-5.4c1.3-0.6,2.5-1.2,2.8-2.9
			c2.9-16.2,6-32.4,5.1-49c-0.3-4.8-1.2-9.6-3.2-14c-1.9-4.2-4.5-7.8-8.8-10.7c-3.1,6.6-6.2,12.9-9.2,19.3c-9.6,0-19,0-28.3,0
			c-0.9-3-1.2-41-0.3-48.2c4.1-0.6,8.4-1.6,12.7-1.9c12.6-0.9,25.2-1.7,37.8-2.1c23.2-0.9,46.3-0.3,69.4,1.4
			C1486.7,687.4,1491.3,688.2,1496.1,688.7z"/>
		<path class="st0" d="M1290.4,325.2c-1.3-16.8-2.6-33.3-4-50.3c5.8-0.5,11.1-1.1,16.5-1.4c26.2-1.9,52.5-1,78.8-0.9
			c12.5,0,25-0.2,37.5-0.3c1,0,1.9,0,3.2,0c0,17.4,0,34.5,0,51.8c-1.2,0.1-2.1,0.3-3.1,0.3c-7,0-13.9-0.1-20.9,0.1
			c-3.1,0.1-4.9-1.4-5.8-4c-0.9-2.4-1.3-4.9-2-7.4c-1.7-5.6-5.5-7.6-12.1-6.1c-0.8,5.1-1.9,10.4-2.2,15.7
			c-0.4,6.4-0.4,12.8-0.3,19.2c0.2,12.2,0.9,24.4-0.6,37c4.1,2.5,8.1,5.1,12.3,7.4c2.5,1.4,3.7,3,3.5,6c-0.3,5.5-0.1,11.1-0.1,16.6
			c0,1.4-0.1,2.8-0.2,3.9c-23.5,0.7-46.6,1.3-70.1,2c-1.2-8.4-2.4-16.9-3.6-25.5c5.1-2.5,9.9-4.9,14.8-7.2c2.1-1,3.3-2.2,3.5-4.7
			c0.7-10.2,1.9-20.4,2.1-30.6c0.2-12.9-0.5-25.8-0.8-39.1c-4.1-0.7-8-1.4-12.1-2.1c-2.2,7.1-4.2,13.9-6.4,21.1
			C1309,326.1,1299.9,325.7,1290.4,325.2z"/>
		<path class="st0" d="M876.1,740.1c-1.8-7.5-3.4-14.3-5.1-21.3c-8.9-1.6-17.6-2.8-26.4-1.2c-11,2-19,8.2-24.1,17.9
			c-7.8,14.8-7.3,29.6,1.5,43.8c7.5,12.1,19,16.9,33,16.3c10.3-0.5,20.1-3.3,29.8-6.7c2.1-0.7,4.3-1.5,6.7-2.4
			c6.9,6.4,13.9,12.9,21,19.6c-0.7,0.8-1.1,1.5-1.7,1.9c-19.3,14.7-40.8,23.1-65.3,21.3c-25.5-1.9-46.3-12.7-58.7-35.9
			c-11.3-21.1-12.2-43.4-4.6-66.1c3-8.9,8.5-16.3,15.5-22.6c16.9-15.1,36.6-23.1,59.4-22.7c17.4,0.3,32.7,6.4,46.1,17.6
			c1.3,1.1,2.4,2.2,2.4,4.2c-0.1,11.9-0.1,23.9-0.1,35.8c0,0.4-0.2,0.8-0.4,1.8C895.6,741,886,740.6,876.1,740.1z"/>
		<path class="st0" d="M1118.4,513.5c-4.1-2.3-8.1-4.6-12-6.8c-1.3-0.7-2.4-1.4-2.4-3.1c0.1-7.1,0-14.2,0-21.4
			c6.8-2.1,13.6-2.9,20.3-3c11.6-0.2,23.3,0.1,34.9,0.2c4.2,0,8.5,0,13.4,0c0.6,8.7,1.1,17.3,1.7,26c-4.3,2.4-8.3,4.8-12.5,7
			c-2,1-2.8,2.3-2.8,4.7c0.1,22.9,0,45.7,0.1,68.6c0,0.9,0.2,1.9,0.4,3.1c10.8-0.7,21.4-1.5,32.2-2.2c2.1-7.1,4.2-14,6.3-21.1
			c10.6,0,21,0,32.1,0c0.2,16.9,0.8,33.8,0.3,51.2c-2.8,0.5-5.5,1-8.3,1.3c-18.2,2-36.5,2.6-54.9,2.7c-13.9,0.1-27.8,0-41.8-0.2
			c-5.4-0.1-10.8-0.6-16.2-0.9c-1.5-0.1-3.1-0.5-4.9-0.8c-0.5-7.2-0.9-14.3-1.4-21.3c-0.1-1.8,1.2-2.4,2.4-3.2
			c4.3-2.7,8.6-5.4,13-8.2C1118.4,561.9,1118.4,537.9,1118.4,513.5z"/>
		<path class="st0" d="M1339,710.4c-4.3,2.4-8.3,4.7-12.3,6.8c-2.1,1.1-3.1,2.4-3.1,4.9c0.1,22.6,0.1,45.2,0,67.8c0,2.4,0.7,3.9,3,5
			c3.2,1.5,6.3,3.3,9.3,5.1c0.8,0.5,1.8,1.6,1.9,2.5c0.1,7.3,0.1,14.7,0.1,22.5c-23.2,1.4-45.9,2.7-69,4.1c0-9.7,0-19.2,0-29
			c4.5-2.1,9.3-4.3,14.1-6.5c0-25.1,0-50.1,0-75.4c-4.6-2.5-9.3-5-14-7.5c0-7.9,0-15.5,0-23.4c22.7,0,45.2,0,68.2,0
			C1337.8,694.8,1338.4,702.4,1339,710.4z"/>
	</g>
</g>
</svg>
