<?xml version="1.0" encoding="utf-8"?>
<!-- Generator: Adobe Illustrator 27.0.1, SVG Export Plug-In . SVG Version: 6.00 Build 0)  -->
<svg version="1.1" id="Layer_1" xmlns="http://www.w3.org/2000/svg" xmlns:xlink="http://www.w3.org/1999/xlink" x="0px" y="0px"
	 viewBox="0 0 100 100" style="enable-background:new 0 0 100 100;" xml:space="preserve">
<style type="text/css">
	.st0{fill:#49C0B4;}
	.st1{fill:#3D97D3;}
	.st2{fill:#BDC3C7;}
	.st3{fill:#FFFFFF;}
	.st4{fill:#FFD149;}
	.st5{fill:none;stroke:#010101;stroke-width:2;stroke-linejoin:round;stroke-miterlimit:10;}
</style>
<g>
	<g id="XMLID_9_">
		<g>
			<polygon class="st0" points="54,65.4 44.5,72.7 35,65.4 39.7,65.4 39.7,50.7 49.2,50.7 49.2,59.9 49.2,65.4 			"/>
			<path class="st1" d="M77.7,24.3c9.5,0,17.1,5.9,17.1,13.2s-7.7,13.2-17.1,13.2h-7.1v-3.7v-7.3c0-2-2.1-3.7-4.8-3.7h-9.5L54,34.2
				l-2.4,1.8h-9.5h-9.5c-2.6,0-4.8,1.7-4.8,3.7v7.3v3.7h-7.1h-2.9c-7.9,0-14.3-4.9-14.3-11s6.4-11,14.3-11c1,0,1.9,0.1,2.9,0.2
				c0-0.1,0-0.1,0-0.2c0-12.2,12.8-22,28.5-22c13.8,0,25.3,7.6,27.9,17.6C77.3,24.4,77.5,24.3,77.7,24.3z"/>
			<path class="st2" d="M70.6,80.1v7.3c0,2-2.1,3.7-4.8,3.7H32.6c-2.6,0-4.8-1.7-4.8-3.7v-7.3H70.6z"/>
			<polygon class="st3" points="70.6,56.2 70.6,80.1 27.8,80.1 27.8,50.7 39.7,50.7 39.7,65.4 35,65.4 44.5,72.7 54,65.4 49.2,65.4 
				49.2,59.9 58.7,59.9 58.7,50.7 70.6,50.7 			"/>
			<polygon class="st3" points="70.6,47.1 70.6,50.7 58.7,50.7 58.7,47.1 65.8,47.1 			"/>
			<path class="st2" d="M70.6,39.7v7.3h-4.8h-7.1v-5.5h4.8l-7.1-5.5h9.5C68.5,36.1,70.6,37.7,70.6,39.7z"/>
			<polygon class="st0" points="63.5,41.6 58.7,41.6 58.7,47.1 49.2,47.1 49.2,45.2 49.2,41.6 44.5,41.6 51.6,36.1 56.3,36.1 			"/>
			<rect x="49.2" y="50.7" class="st0" width="9.5" height="9.2"/>
			<polygon class="st0" points="58.7,47.1 58.7,50.7 49.2,50.7 49.2,48.9 49.2,47.1 			"/>
			<polygon class="st4" points="56.3,36.1 51.6,36.1 54,34.2 			"/>
			<path class="st2" d="M51.6,36.1l-7.1,5.5h4.8v3.7v1.8H32.6h-4.8v-7.3c0-2,2.1-3.7,4.8-3.7h9.5H51.6z"/>
			<rect x="39.7" y="48.9" class="st3" width="9.5" height="1.8"/>
			<polygon class="st3" points="49.2,47.1 49.2,48.9 39.7,48.9 39.7,50.7 27.8,50.7 27.8,47.1 32.6,47.1 			"/>
		</g>
		<g>
			<path class="st5" d="M77.7,50.7c9.5,0,17.1-5.9,17.1-13.2s-7.7-13.2-17.1-13.2c-0.2,0-0.4,0-0.6,0C74.5,14.3,63,6.7,49.2,6.7
				c-15.8,0-28.5,9.8-28.5,22c0,0.1,0,0.1,0,0.2c-0.9-0.1-1.9-0.2-2.9-0.2c-7.9,0-14.3,4.9-14.3,11s6.4,11,14.3,11h2.9"/>
			<path class="st5" d="M67.4,26.4c-1.2-4.7-5.3-8.6-10.6-10.7"/>
			<path class="st5" d="M70.6,80.1v7.3c0,2-2.1,3.7-4.8,3.7H32.6c-2.6,0-4.8-1.7-4.8-3.7v-7.3"/>
			<path class="st5" d="M42.1,36.1h-9.5c-2.6,0-4.8,1.7-4.8,3.7v7.3h4.8"/>
			<path class="st5" d="M65.8,36.1c2.6,0,4.8,1.7,4.8,3.7v7.3h-4.8"/>
			<polyline class="st5" points="27.8,47.1 27.8,50.7 27.8,80.1 70.6,80.1 70.6,56.2 70.6,50.7 70.6,47.1 			"/>
			<polygon class="st5" points="49.2,48.9 49.2,50.7 49.2,59.9 49.2,65.4 54,65.4 44.5,72.7 35,65.4 39.7,65.4 39.7,50.7 39.7,48.9 
							"/>
			<polyline class="st5" points="58.7,59.9 58.7,50.7 58.7,47.1 58.7,41.6 63.5,41.6 56.3,36.1 54,34.2 51.6,36.1 44.5,41.6 
				49.2,41.6 49.2,45.2 			"/>
			<line class="st5" x1="46.8" y1="85.6" x2="51.6" y2="85.6"/>
			<polyline class="st5" points="80.1,80.1 80.1,58.1 89.6,58.1 			"/>
			<polyline class="st5" points="18.3,80.1 18.3,58.1 8.8,58.1 			"/>
			<line class="st5" x1="80.1" y1="83.7" x2="80.1" y2="87.4"/>
			<line class="st5" x1="18.3" y1="83.7" x2="18.3" y2="87.4"/>
		</g>
	</g>
</g>
</svg>
